<svg xmlns="http://www.w3.org/2000/svg" xmlns:xlink="http://www.w3.org/1999/xlink" width="768" zoomAndPan="magnify" viewBox="0 0 576 576" height="768" preserveAspectRatio="xMidYMid meet" version="1.0"><defs><g/><clipPath id="3e68f27cc3"><path d="M 94 16.457031 L 491.789062 16.457031 L 491.789062 440 L 94 440 Z M 94 16.457031 " clip-rule="nonzero"/></clipPath><clipPath id="bc8bf52762"><path d="M 185 356 L 491.789062 356 L 491.789062 428 L 185 428 Z M 185 356 " clip-rule="nonzero"/></clipPath><clipPath id="ee42971162"><path d="M 94 451 L 491.789062 451 L 491.789062 473.207031 L 94 473.207031 Z M 94 451 " clip-rule="nonzero"/></clipPath></defs><g clip-path="url(#3e68f27cc3)"><path fill="#000000" d="M 491.410156 16.457031 C 379.050781 17.757812 314.414062 32.246094 274.203125 43.941406 C 274.203125 43.941406 211.378906 121.324219 184.179688 158.480469 C 184.179688 158.480469 172.6875 158.289062 166.175781 159.054688 L 166.175781 127.453125 C 166.175781 127.453125 107.566406 113.46875 96.074219 128.027344 C 84.582031 142.582031 125.761719 159.246094 144.722656 168.441406 C 144.722656 168.441406 113.886719 187.402344 115.421875 213.066406 C 116.953125 238.734375 116.953125 439.84375 116.953125 439.84375 L 163.6875 347.140625 C 163.6875 347.140625 126.53125 318.558594 126.53125 252.90625 C 126.53125 187.253906 134.957031 167.480469 223.066406 167.480469 L 304.277344 216.894531 L 244.519531 165.5625 C 244.519531 165.5625 341.394531 174.878906 491.410156 175.132812 L 491.410156 163.152344 C 458.605469 162.523438 306.144531 158.972656 228.8125 146.027344 C 228.8125 146.027344 267.121094 84.351562 291.253906 54.472656 C 291.253906 54.472656 336.808594 29.007812 491.410156 27.359375 Z M 491.410156 16.457031 " fill-opacity="1" fill-rule="evenodd"/></g><path fill="#000000" d="M 167.140625 186.242188 L 192.808594 186.242188 C 192.808594 186.242188 179.398438 253.277344 325.734375 297.714844 C 325.734375 297.714844 298.535156 305.375 252.949219 304.609375 C 207.363281 303.84375 184.378906 277.027344 179.785156 245.234375 C 175.1875 213.4375 167.140625 186.242188 167.140625 186.242188 Z M 167.140625 186.242188 " fill-opacity="1" fill-rule="evenodd"/><path fill="#000000" d="M 214.257812 211.136719 L 234.316406 245.875 L 349.503906 282.695312 L 482.027344 282.695312 L 351.589844 272.429688 Z M 214.257812 211.136719 " fill-opacity="1" fill-rule="evenodd"/><path fill="#000000" d="M 170.585938 354.40625 L 138.792969 425.65625 L 168.097656 445.003906 C 168.097656 445.003906 162.644531 419.761719 170.972656 394.628906 C 179.296875 369.496094 198.554688 354.789062 198.554688 354.789062 Z M 170.585938 354.40625 " fill-opacity="1" fill-rule="evenodd"/><g clip-path="url(#bc8bf52762)"><path fill="#000000" d="M 220.578125 356.703125 L 491.410156 356.703125 L 491.410156 392.136719 L 433.566406 392.136719 C 403.734375 392.136719 397.277344 427.570312 363.066406 427.570312 L 185.144531 427.570312 L 185.144531 392.136719 C 185.144531 372.648438 201.085938 356.703125 220.578125 356.703125 Z M 220.578125 356.703125 " fill-opacity="1" fill-rule="evenodd"/></g><g clip-path="url(#ee42971162)"><path fill="#000000" d="M 94.082031 473.015625 C 183.039062 469.085938 350.660156 465.957031 491.40625 467.503906 L 491.40625 451.605469 C 349.777344 454.152344 182.046875 462.863281 94.082031 473.015625 Z M 94.082031 473.015625 " fill-opacity="1" fill-rule="evenodd"/></g><g fill="#000000" fill-opacity="1"><g transform="translate(204.538482, 546.997447)"><g><path d="M 11.640625 -24.234375 L -1.453125 -53.890625 L 14.296875 -53.890625 L 18.90625 -40.484375 L 23.671875 -53.890625 L 39.421875 -53.890625 L 26.171875 -24.234375 L 26.171875 0 L 11.640625 0 Z M 11.640625 -24.234375 "/></g></g></g><g fill="#000000" fill-opacity="1"><g transform="translate(242.431478, 546.997447)"><g><path d="M 18.421875 -40.15625 C 20.898438 -40.15625 23.175781 -39.65625 25.25 -38.65625 C 27.320312 -37.664062 29.113281 -36.253906 30.625 -34.421875 C 32.132812 -32.585938 33.304688 -30.414062 34.140625 -27.90625 C 34.972656 -25.40625 35.390625 -22.675781 35.390625 -19.71875 C 35.390625 -16.695312 34.972656 -13.921875 34.140625 -11.390625 C 33.304688 -8.859375 32.132812 -6.691406 30.625 -4.890625 C 29.113281 -3.085938 27.296875 -1.6875 25.171875 -0.6875 C 23.046875 0.3125 20.710938 0.8125 18.171875 0.8125 C 15.753906 0.8125 13.535156 0.300781 11.515625 -0.71875 C 9.492188 -1.75 7.726562 -3.175781 6.21875 -5 C 4.707031 -6.832031 3.535156 -9 2.703125 -11.5 C 1.867188 -14.007812 1.453125 -16.75 1.453125 -19.71875 C 1.453125 -22.675781 1.867188 -25.40625 2.703125 -27.90625 C 3.535156 -30.414062 4.707031 -32.570312 6.21875 -34.375 C 7.726562 -36.175781 9.519531 -37.585938 11.59375 -38.609375 C 13.664062 -39.640625 15.941406 -40.15625 18.421875 -40.15625 Z M 18.421875 -26.65625 C 17.179688 -26.65625 16.238281 -26.019531 15.59375 -24.75 C 14.945312 -23.488281 14.625 -21.675781 14.625 -19.3125 C 14.625 -16.882812 14.945312 -15.035156 15.59375 -13.765625 C 16.238281 -12.503906 17.179688 -11.875 18.421875 -11.875 C 19.660156 -11.875 20.601562 -12.503906 21.25 -13.765625 C 21.894531 -15.035156 22.21875 -16.832031 22.21875 -19.15625 C 22.21875 -24.15625 20.953125 -26.65625 18.421875 -26.65625 Z M 18.421875 -26.65625 "/></g></g></g><g fill="#000000" fill-opacity="1"><g transform="translate(279.27414, 546.997447)"><g><path d="M 21.328125 -11.875 L 18.671875 0 C 18.398438 0 18.140625 -0.0078125 17.890625 -0.03125 C 17.648438 -0.0625 17.378906 -0.078125 17.078125 -0.078125 C 16.785156 -0.078125 16.410156 -0.078125 15.953125 -0.078125 C 15.492188 -0.078125 14.890625 -0.078125 14.140625 -0.078125 C 11.765625 -0.078125 9.878906 -0.410156 8.484375 -1.078125 C 7.085938 -1.753906 5.929688 -2.875 5.015625 -4.4375 C 4.628906 -5.082031 4.328125 -5.675781 4.109375 -6.21875 C 3.898438 -6.757812 3.738281 -7.429688 3.625 -8.234375 C 3.519531 -9.046875 3.453125 -10.082031 3.421875 -11.34375 C 3.398438 -12.613281 3.390625 -14.273438 3.390625 -16.328125 L 3.390625 -26.09375 L 0.40625 -26.09375 L 3.390625 -39.34375 L 16.640625 -39.34375 L 16.640625 -23.03125 C 16.640625 -21.351562 16.648438 -20.003906 16.671875 -18.984375 C 16.703125 -17.960938 16.734375 -17.128906 16.765625 -16.484375 C 16.796875 -15.835938 16.847656 -15.351562 16.921875 -15.03125 C 17.003906 -14.707031 17.128906 -14.4375 17.296875 -14.21875 C 17.554688 -13.789062 17.984375 -13.453125 18.578125 -13.203125 C 19.171875 -12.960938 19.789062 -12.84375 20.4375 -12.84375 C 20.550781 -12.84375 20.671875 -12.84375 20.796875 -12.84375 C 20.929688 -12.84375 21.109375 -12.867188 21.328125 -12.921875 L 21.328125 -39.34375 L 34.578125 -39.34375 L 34.578125 -12.921875 L 37.40625 -12.921875 L 34.578125 0 L 21.328125 0 Z M 21.328125 -11.875 "/></g></g></g><g fill="#000000" fill-opacity="1"><g transform="translate(317.086342, 546.997447)"><g><path d="M 3.390625 -26.09375 L 0.40625 -26.09375 L 3.390625 -39.34375 L 16.640625 -39.34375 L 16.640625 -35.796875 C 17.453125 -37.085938 18.4375 -38.03125 19.59375 -38.625 C 20.75 -39.21875 22.21875 -39.515625 24 -39.515625 C 24.269531 -39.515625 24.535156 -39.515625 24.796875 -39.515625 C 25.066406 -39.515625 25.394531 -39.457031 25.78125 -39.34375 L 22.859375 -26.09375 C 22.054688 -26.53125 21.359375 -26.75 20.765625 -26.75 C 20.117188 -26.75 19.5 -26.597656 18.90625 -26.296875 C 18.3125 -26.003906 17.851562 -25.613281 17.53125 -25.125 C 17.375 -24.851562 17.226562 -24.554688 17.09375 -24.234375 C 16.957031 -23.910156 16.859375 -23.492188 16.796875 -22.984375 C 16.742188 -22.472656 16.703125 -21.828125 16.671875 -21.046875 C 16.648438 -20.265625 16.640625 -19.28125 16.640625 -18.09375 L 16.640625 0 L 3.390625 0 Z M 3.390625 -26.09375 "/></g></g></g><g fill="#000000" fill-opacity="1"><g transform="translate(342.463092, 546.997447)"><g/></g></g><path stroke-linecap="butt" transform="matrix(0.466183, 0, 0, 0.466183, 371.508705, 464.949241)" fill="none" stroke-linejoin="miter" d="M 84.075184 163.688023 C 73.441953 173.055992 62.289211 177.731597 50.608578 177.731597 C 43.670583 177.731597 37.025861 176.030615 30.674412 172.611893 C 24.331343 169.20155 18.960262 164.433774 14.552792 158.308564 C 7.16232 148.044019 3.467084 135.223812 3.467084 119.847942 C 3.467084 108.510857 5.285375 98.363621 8.930335 89.422993 C 12.566917 80.482365 17.669862 73.343269 24.24755 68.014085 C 27.967924 65.022703 32.015088 62.726797 36.389041 61.117987 C 40.788131 59.484039 45.178843 58.662875 49.552796 58.662875 C 51.186744 58.662875 52.753658 58.771805 54.245159 58.998044 C 55.74504 59.224283 57.705777 59.634865 60.127372 60.229789 L 61.861871 56.584828 L 85.097449 67.335368 L 72.101278 101.824239 C 69.084759 97.785455 66.16879 94.886245 63.344993 93.10985 C 60.521195 91.299938 57.261679 90.394983 53.566442 90.394983 C 42.120427 90.394983 36.389041 99.804847 36.389041 118.624576 C 36.389041 127.648996 37.771612 134.645645 40.536755 139.606144 C 43.327035 144.575022 47.206614 147.055271 52.175492 147.055271 C 59.339725 147.055271 65.984447 141.977463 72.101278 131.821848 Z M 122.527426 175.661929 C 117.22338 175.43569 113.151079 174.882662 110.293764 174.011223 C 107.478346 173.139784 104.796996 171.539353 102.258092 169.226688 C 97.967931 165.422522 94.725173 160.453644 92.529817 154.336813 C 90.35122 148.211603 89.270301 141.164679 89.270301 133.179282 C 89.270301 126.827833 90.016051 121.062929 91.507552 115.867813 C 93.007433 110.655937 95.135755 106.198192 97.900897 102.502956 C 100.691178 98.80772 104.076383 95.983923 108.056513 94.039943 C 112.036642 92.062447 116.444112 91.073699 121.295681 91.073699 C 123.977031 91.073699 126.373488 91.366972 128.493431 91.961897 C 130.638512 92.531684 132.867384 93.445019 135.180049 94.710281 L 135.180049 91.584832 L 162.554962 91.584832 L 162.554962 148.287016 L 168.646655 148.287016 L 162.554962 175.997098 L 134.166163 175.997098 L 134.166163 150.524268 L 128.409639 175.997098 Z M 134.166163 131.989433 C 134.166163 129.903007 134.124267 128.202025 134.032096 126.869729 C 133.98182 125.545812 133.864511 124.448134 133.696927 123.568316 C 133.529343 122.696877 133.328241 122.009781 133.102002 121.498649 C 132.875763 120.962379 132.523836 120.468005 132.046221 120.015527 C 130.780958 118.632955 129.222423 117.945859 127.395753 117.945859 C 124.73954 117.945859 122.59446 119.294914 120.960512 122.009781 C 119.351702 124.716269 118.547297 128.269059 118.547297 132.668149 C 118.547297 143.19245 122.653115 148.454601 130.86475 148.454601 C 131.090989 148.454601 131.543467 148.454601 132.213805 148.454601 C 132.926039 148.454601 133.571239 148.395946 134.166163 148.287016 Z M 176.774499 120.015527 L 170.347637 120.015527 L 176.774499 91.584832 L 205.213573 91.584832 L 205.213573 99.201543 C 206.931313 96.4364 209.034497 94.417008 211.514747 93.151746 C 214.003375 91.878105 217.162341 91.241284 221.000024 91.241284 C 221.561432 91.241284 222.12284 91.241284 222.692627 91.241284 C 223.279172 91.241284 223.983027 91.358593 224.80419 91.584832 L 218.544913 120.015527 C 216.818793 119.085433 215.327292 118.624576 214.05365 118.624576 C 212.671079 118.624576 211.330404 118.942986 210.040004 119.596566 C 208.766362 120.216628 207.794373 121.046171 207.115656 122.093573 C 206.780487 122.680119 206.453698 123.333698 206.143666 124.037552 C 205.858773 124.716269 205.666051 125.604467 205.548742 126.702144 C 205.439812 127.799822 205.35602 129.182394 205.297365 130.849859 C 205.238711 132.517323 205.213573 134.620508 205.213573 137.159412 L 205.213573 175.997098 L 176.774499 175.997098 Z M 248.165457 142.186944 C 253.017025 142.186944 256.82957 143.812513 259.594713 147.055271 C 262.384994 150.298029 263.775944 154.688741 263.775944 160.219026 C 263.775944 165.774449 262.301201 170.17354 259.334957 173.416298 C 256.40223 176.633919 252.514272 178.242729 247.654324 178.242729 C 242.802756 178.242729 238.923177 176.633919 236.023966 173.416298 C 233.141514 170.17354 231.708668 165.883379 231.708668 160.554195 C 231.708668 155.023909 233.200169 150.582923 236.191551 147.222855 C 239.20807 143.871167 243.204958 142.186944 248.165457 142.186944 Z M 248.165457 142.186944 " stroke="#ff5757" stroke-width="4.658056" stroke-opacity="1" stroke-miterlimit="4"/></svg>