<svg xmlns="http://www.w3.org/2000/svg" xmlns:xlink="http://www.w3.org/1999/xlink" width="1640" zoomAndPan="magnify" viewBox="0 0 1230 693.000001" height="924" preserveAspectRatio="xMidYMid meet" version="1.0"><defs><clipPath id="24755e1def"><path d="M 232.179688 41.648438 L 1144.464844 41.648438 L 1144.464844 649.929688 L 232.179688 649.929688 Z M 232.179688 41.648438 " clip-rule="nonzero"/></clipPath><clipPath id="9863f09c06"><path d="M 66.105469 206.445312 L 229.78125 206.445312 L 229.78125 485.535156 L 66.105469 485.535156 Z M 66.105469 206.445312 " clip-rule="nonzero"/></clipPath></defs><g clip-path="url(#24755e1def)"><path fill="#ff5757" d="M 840.382812 649.929688 L 232.179688 649.929688 L 232.179688 486.449219 L 840.382812 486.449219 C 879.300781 486.449219 914.175781 470.832031 939.796875 445.210938 C 965.445312 419.589844 980.984375 384.632812 980.984375 345.800781 C 980.984375 306.800781 965.445312 271.980469 939.796875 246.355469 C 914.175781 220.734375 879.300781 205.128906 840.382812 205.128906 L 232.179688 205.128906 L 232.179688 41.648438 L 840.382812 41.648438 C 1008.347656 41.648438 1144.464844 177.753906 1144.464844 345.800781 C 1144.464844 513.664062 1008.347656 649.929688 840.382812 649.929688 " fill-opacity="1" fill-rule="nonzero"/></g><g clip-path="url(#9863f09c06)"><path fill="#ff5757" d="M 66.105469 206.445312 L 229.78125 206.445312 L 229.78125 485.835938 L 66.105469 485.835938 Z M 66.105469 206.445312 " fill-opacity="1" fill-rule="nonzero"/></g></svg>