<svg xmlns="http://www.w3.org/2000/svg" xmlns:xlink="http://www.w3.org/1999/xlink" width="1640" zoomAndPan="magnify" viewBox="0 0 1230 693.000001" height="924" preserveAspectRatio="xMidYMid meet" version="1.0"><defs><clipPath id="ccd1afc4af"><path d="M 32 356.316406 L 1167 356.316406 L 1167 517 L 32 517 Z M 32 356.316406 " clip-rule="nonzero"/></clipPath></defs><g clip-path="url(#ccd1afc4af)"><path fill="#000000" d="M 1071.796875 362.757812 C 1055.980469 363.152344 1040.152344 363.335938 1024.347656 364.011719 C 1007.261719 364.726562 990.1875 365.730469 973.125 366.90625 C 959.132812 367.875 945.183594 369.316406 931.214844 370.503906 C 918.519531 371.574219 905.8125 372.476562 893.140625 373.664062 C 881.914062 374.710938 870.710938 376.070312 859.496094 377.25 C 849.074219 378.332031 838.640625 379.257812 828.21875 380.394531 C 818.460938 381.464844 808.714844 382.722656 798.953125 383.875 C 789.511719 384.996094 780.066406 386.042969 770.625 387.191406 C 759.753906 388.539062 748.898438 389.941406 738.027344 391.359375 C 729.085938 392.507812 720.132812 393.660156 711.191406 394.902344 C 696.035156 396.992188 680.894531 399.160156 665.738281 401.300781 C 653.464844 403.046875 641.179688 404.753906 628.90625 406.5625 C 615.046875 408.601562 601.1875 410.703125 587.339844 412.84375 C 571.734375 415.25 556.128906 417.671875 540.550781 420.171875 C 526.398438 422.445312 512.25 424.8125 498.113281 427.207031 C 480.019531 430.285156 461.914062 433.367188 443.835938 436.582031 C 419.394531 440.917969 394.984375 445.320312 370.582031 449.804688 C 347.453125 454.0625 324.296875 458.199219 301.230469 462.800781 C 262.363281 470.578125 223.496094 478.390625 184.746094 486.710938 C 152.59375 493.613281 120.644531 501.425781 88.535156 508.554688 C 74.859375 511.59375 61.039062 514.015625 47.230469 516.515625 C 44.957031 516.925781 42.339844 516.710938 40.128906 516 C 35.621094 514.542969 32.882812 511.144531 32.394531 506.386719 C 31.917969 501.808594 33.875 498.109375 37.855469 495.820312 C 40.355469 494.390625 43.09375 493.269531 45.871094 492.460938 C 67.691406 486.085938 89.550781 479.808594 111.414062 473.566406 C 116.570312 472.097656 121.09375 473.328125 124.28125 477.785156 C 125.578125 479.582031 126.871094 479.726562 128.816406 479.371094 C 161.484375 473.421875 194.148438 467.535156 226.8125 461.613281 C 257.5625 456.019531 288.308594 450.347656 319.070312 444.804688 C 343.800781 440.335938 368.546875 435.917969 393.316406 431.636719 C 411.726562 428.460938 430.1875 425.539062 448.636719 422.523438 C 465.804688 419.707031 482.957031 416.8125 500.148438 414.128906 C 518.292969 411.3125 536.476562 408.707031 554.636719 405.980469 C 573.125 403.21875 591.585938 400.335938 610.074219 397.664062 C 622.996094 395.800781 635.957031 394.226562 648.890625 392.480469 C 662.457031 390.65625 676.015625 388.710938 689.582031 386.953125 C 701.089844 385.472656 712.621094 384.191406 724.125 382.777344 C 736.121094 381.292969 748.101562 379.707031 760.097656 378.28125 C 769.859375 377.128906 779.644531 376.136719 789.417969 375.066406 C 799.828125 373.917969 810.222656 372.714844 820.640625 371.601562 C 828.496094 370.769531 836.355469 370.015625 844.222656 369.25 C 853.359375 368.363281 862.5 367.449219 871.636719 366.617188 C 880.3125 365.824219 888.988281 365.109375 897.664062 364.382812 C 907.78125 363.523438 917.898438 362.648438 928.015625 361.84375 C 933.808594 361.378906 939.601562 360.972656 945.394531 360.640625 C 952.972656 360.21875 960.550781 359.914062 968.128906 359.515625 C 984.554688 358.671875 1000.976562 357.613281 1017.417969 356.976562 C 1028.710938 356.542969 1040.03125 356.59375 1051.339844 356.566406 C 1065.238281 356.527344 1079.136719 356.355469 1093.023438 356.738281 C 1110.917969 357.230469 1128.796875 358.367188 1146.28125 362.558594 C 1150.921875 363.667969 1155.484375 365.585938 1159.730469 367.808594 C 1161.980469 368.984375 1163.683594 371.445312 1165.257812 373.613281 C 1166.515625 375.332031 1166.355469 377.488281 1164.308594 378.664062 C 1162.046875 379.972656 1160.710938 378.558594 1159.824219 376.546875 C 1158.300781 373.097656 1155.167969 371.589844 1151.902344 370.730469 C 1144.90625 368.90625 1137.882812 366.84375 1130.742188 365.980469 C 1111.183594 363.640625 1091.515625 362.691406 1071.796875 362.757812 Z M 1071.796875 362.757812 " fill-opacity="1" fill-rule="nonzero"/></g><path fill="#000000" d="M 1198.359375 416.136719 C 1198.296875 422.089844 1193.386719 426.886719 1187.449219 426.796875 C 1181.527344 426.691406 1176.765625 421.71875 1176.921875 415.765625 C 1177.070312 410.175781 1182.027344 405.308594 1187.597656 405.28125 C 1193.441406 405.253906 1198.414062 410.28125 1198.359375 416.136719 Z M 1198.359375 416.136719 " fill-opacity="1" fill-rule="nonzero"/><path fill="#000000" d="M 287.742188 291.121094 C 286.773438 290.15625 285.425781 289.574219 284.078125 289.574219 C 282.714844 289.574219 281.367188 290.15625 280.402344 291.121094 C 280.015625 291.503906 229.195312 341.554688 192.667969 330.539062 C 179.71875 326.679688 172.5625 314.316406 168.503906 301.171875 C 167.351562 296.925781 167.738281 292.285156 169.667969 288.226562 C 183.195312 260.789062 216.429688 188.90625 200.007812 171.332031 C 196.144531 166.492188 189.769531 164.945312 184.164062 167.273438 C 164.640625 175.777344 151.695312 232.769531 154.023438 274.316406 C 154.40625 280.6875 155.171875 287.0625 156.335938 293.449219 C 156.335938 294.214844 156.335938 294.796875 156.71875 295.378906 C 161.746094 319.722656 173.144531 335.367188 189.769531 340.207031 C 194.410156 341.554688 199.039062 342.335938 203.683594 342.335938 C 242.90625 342.335938 285.625 300.207031 287.554688 298.273438 C 288.519531 297.308594 289.101562 296.144531 289.101562 294.796875 C 289.101562 293.25 288.707031 292.085938 287.742188 291.121094 Z M 164.640625 271.417969 C 158.652344 239.15625 178.554688 180.601562 188.222656 176.542969 C 188.605469 176.359375 188.988281 176.160156 189.386719 176.160156 C 190.152344 176.160156 191.117188 176.542969 192.46875 178.089844 C 200.203125 186.210938 178.171875 256.144531 167.933594 272.570312 C 166.96875 274.316406 165.027344 273.351562 164.640625 271.417969 Z M 164.640625 271.417969 " fill-opacity="1" fill-rule="nonzero"/><path fill="#000000" d="M 444.269531 290.9375 C 443.304688 289.972656 442.140625 289.191406 440.792969 289.191406 C 439.429688 289.003906 438.082031 289.390625 437.117188 290.15625 C 436.347656 290.738281 361.945312 349.859375 299.90625 324.363281 C 287.355469 319.140625 286.773438 312.382812 287.15625 308.707031 C 287.15625 308.125 287.355469 307.542969 287.925781 307.160156 C 288.320312 306.777344 289.089844 306.777344 289.671875 306.960938 C 302.234375 307.742188 314.785156 304.464844 325.617188 297.695312 C 334.886719 291.703125 336.433594 285.132812 335.851562 280.886719 C 335.46875 273.929688 329.859375 268.324219 322.71875 268.125 C 307.445312 267.359375 281.933594 285.527344 277.6875 304.847656 C 275.941406 311.988281 276.140625 325.515625 296.042969 333.632812 C 308.226562 338.660156 320.972656 340.972656 333.921875 340.972656 C 389.386719 340.972656 440.792969 300.207031 443.488281 298.078125 C 444.457031 297.308594 445.234375 295.960938 445.234375 294.796875 C 445.421875 293.449219 445.039062 292.085938 444.269531 290.9375 Z M 294.113281 295.179688 C 301.652344 284.746094 314.214844 277.792969 322.136719 278.375 C 324.253906 278.375 325.417969 279.140625 325.800781 282.039062 C 326 283.980469 323.871094 286.679688 320.007812 289.191406 C 312.085938 294.414062 288.320312 302.917969 294.113281 295.179688 Z M 294.113281 295.179688 " fill-opacity="1" fill-rule="nonzero"/><path fill="#000000" d="M 569.488281 288.027344 C 567.558594 286.097656 564.265625 286.097656 562.335938 288.226562 C 561.949219 288.609375 509.578125 341.355469 474.796875 328.226562 C 459.335938 322.234375 452.765625 304.265625 450.253906 286.492188 C 453.730469 277.992188 459.535156 263.882812 464.945312 248.039062 C 465.527344 246.109375 466.097656 245.910156 468.421875 245.714844 C 494.503906 243.78125 520.410156 242.816406 535.671875 242.816406 C 538.570312 242.816406 540.699219 240.503906 540.699219 237.792969 C 540.699219 234.898438 538.570312 232.769531 535.671875 232.769531 C 520.980469 232.769531 496.832031 233.929688 472.085938 235.28125 C 471.121094 235.480469 469.390625 234.898438 470.738281 231.417969 C 480.023438 204.945312 486.582031 178.089844 482.519531 169.972656 C 478.472656 161.867188 473.050781 161.667969 470.355469 162.25 C 456.058594 164.945312 445.625 202.050781 440.980469 232.382812 C 440.597656 235.09375 439.234375 237.410156 436.722656 237.609375 C 406.386719 239.921875 381.457031 241.667969 381.074219 241.667969 C 378.175781 241.851562 376.046875 244.167969 376.246094 247.074219 C 376.246094 249.773438 378.558594 252.101562 381.457031 251.902344 L 381.851562 251.902344 C 382.421875 251.902344 405.804688 250.15625 434.992188 248.039062 C 435.957031 247.84375 436.921875 248.039062 437.6875 248.808594 C 438.46875 249.390625 439.050781 250.355469 439.050781 251.320312 C 436.15625 297.308594 447.738281 328.808594 471.121094 337.691406 C 476.148438 339.425781 481.371094 340.390625 486.78125 340.390625 C 525.039062 340.390625 567.558594 297.308594 569.6875 295.378906 C 570.652344 294.414062 571.035156 293.050781 571.035156 291.703125 C 571.035156 290.355469 570.453125 289.003906 569.488281 288.027344 Z M 451.21875 232 C 455.660156 202.632812 464.5625 179.4375 469.773438 173.449219 C 470.355469 173.066406 471.121094 172.878906 471.902344 173.066406 C 472.484375 173.265625 473.050781 173.648438 473.449219 174.414062 C 475.761719 179.4375 469.191406 203.980469 459.335938 233.164062 C 458.953125 234.898438 457.605469 236.246094 455.660156 236.445312 C 454.695312 236.640625 453.730469 236.640625 452.578125 236.640625 C 450.636719 236.640625 451.03125 233.546875 451.21875 232.199219 Z M 448.902344 262.335938 C 446.972656 262.335938 447.738281 248.808594 449.484375 246.878906 C 451.03125 245.910156 452.964844 245.714844 454.511719 246.679688 C 456.242188 248.226562 451.03125 262.335938 448.902344 262.335938 Z M 448.902344 262.335938 " fill-opacity="1" fill-rule="nonzero"/><path fill="#000000" d="M 579.539062 259.242188 C 594.03125 250.9375 596.730469 241.085938 597.113281 236.058594 C 597.695312 230.070312 595.382812 224.265625 590.738281 220.40625 C 588.609375 218.671875 585.332031 219.242188 583.585938 221.371094 C 581.851562 223.5 582.234375 226.777344 584.5625 228.523438 C 586.492188 230.070312 587.460938 232.769531 587.0625 235.28125 C 586.878906 238.375 584.945312 244.5625 574.511719 250.554688 C 572.382812 251.519531 571.417969 254.03125 572 256.144531 C 572.582031 258.273438 574.699219 259.824219 577.023438 259.824219 C 577.792969 260.019531 578.757812 259.625 579.539062 259.242188 Z M 579.539062 259.242188 " fill-opacity="1" fill-rule="nonzero"/><path fill="#000000" d="M 750.359375 287.0625 C 749.394531 286.097656 748.230469 285.714844 746.882812 285.714844 C 745.535156 285.714844 744.171875 286.097656 743.207031 287.0625 C 724.664062 304.648438 701.851562 317.011719 676.921875 323.003906 C 675.957031 323.398438 674.804688 323.003906 674.226562 322.234375 C 673.644531 321.269531 673.445312 320.304688 674.027344 319.339844 C 677.503906 312.570312 676.738281 304.464844 672.292969 298.273438 C 669.582031 294.597656 666.105469 291.503906 662.042969 289.191406 C 656.636719 285.527344 650.644531 281.269531 650.445312 276.828125 C 650.644531 274.316406 651.609375 272 653.355469 270.070312 L 663.789062 260.207031 C 665.722656 258.273438 665.90625 255.179688 664.171875 253.25 C 662.429688 251.136719 659.53125 250.738281 657.21875 252.484375 C 653.15625 255.578125 649.296875 259.054688 646.003906 263.101562 L 616.246094 290.9375 C 614.898438 292.085938 614.316406 294.015625 614.699219 295.761719 C 615.082031 297.695312 616.445312 299.042969 618.175781 299.625 C 619.921875 300.007812 621.855469 299.625 623.203125 298.273438 L 637.894531 284.550781 C 638.664062 283.78125 639.628906 283.585938 640.59375 283.585938 C 641.558594 283.78125 642.339844 284.363281 642.722656 285.132812 C 646.398438 290.15625 651.027344 294.414062 656.25 297.496094 C 659.148438 299.242188 661.660156 301.171875 663.789062 303.683594 C 665.722656 305.8125 666.6875 308.707031 666.105469 311.605469 C 665.523438 314.5 663.789062 317.011719 661.277344 318.375 C 648.910156 325.328125 633.253906 322.039062 624.75 310.640625 C 623.402344 308.511719 620.304688 307.742188 617.992188 309.289062 C 615.664062 310.640625 614.898438 313.535156 616.246094 316.046875 C 622.621094 327.0625 634.019531 334.214844 646.78125 335.179688 C 650.0625 335.761719 653.15625 335.949219 656.4375 335.949219 C 689.101562 335.949219 729.292969 315.464844 750.359375 294.214844 C 752.292969 292.285156 752.292969 289.003906 750.359375 287.0625 Z M 750.359375 287.0625 " fill-opacity="1" fill-rule="nonzero"/><path fill="#000000" d="M 949.007812 289.773438 C 946.878906 287.84375 943.597656 288.027344 941.855469 290.15625 C 926.59375 305.996094 901.859375 307.542969 884.855469 293.832031 C 880.792969 290.9375 875.1875 291.121094 871.523438 294.597656 C 869.394531 296.53125 867.078125 298.660156 864.753906 301.171875 C 857.410156 309.476562 856.0625 302.519531 856.0625 297.890625 C 856.0625 293.832031 855.28125 289.574219 853.933594 285.714844 C 853.152344 283.78125 851.222656 282.433594 849.105469 282.433594 C 846.976562 282.617188 845.230469 283.78125 844.464844 285.910156 C 839.054688 300.972656 827.457031 323.003906 819.335938 324.550781 C 818.753906 324.746094 817.222656 324.933594 814.894531 322.421875 C 813.742188 317.410156 814.511719 311.988281 817.023438 307.359375 C 822.816406 291.703125 837.125 280.6875 853.734375 279.140625 C 856.632812 278.957031 858.761719 276.445312 858.574219 273.734375 C 858.378906 270.835938 855.863281 268.707031 853.152344 268.90625 C 832.484375 270.835938 814.707031 284.363281 807.355469 303.882812 C 804.074219 312.382812 802.144531 323.585938 807.355469 329.191406 C 810.832031 333.433594 816.058594 335.367188 821.269531 334.402344 C 830.9375 332.46875 839.636719 319.722656 845.8125 308.125 C 845.429688 312.769531 844.847656 317.976562 844.082031 323.398438 C 843.882812 324.550781 843.5 325.515625 842.917969 326.296875 C 820.304688 354.882812 799.816406 389.476562 799.433594 411.304688 C 798.851562 417.097656 800.980469 422.902344 804.84375 427.148438 C 806.785156 429.078125 809.101562 430.042969 811.613281 430.042969 C 813.742188 430.042969 815.859375 429.476562 817.605469 428.3125 C 830.355469 419.808594 846.59375 370.15625 852.96875 330.738281 C 853.152344 329.957031 853.550781 329.191406 854.132812 328.410156 C 860.890625 320.105469 868.046875 312.1875 875.570312 304.648438 C 877.316406 302.917969 880.027344 302.71875 881.957031 304.066406 C 903.210938 318.375 931.417969 315.28125 949.207031 296.925781 C 950.9375 294.796875 950.9375 291.703125 949.007812 289.773438 Z M 820.304688 407.828125 C 815.859375 416.714844 814.3125 420.574219 811.996094 419.808594 C 809.683594 419.226562 809.484375 415.367188 809.683594 411.503906 C 810.066406 396.628906 835.960938 346.195312 839.636719 347.742188 C 843.300781 349.289062 827.65625 392.570312 820.304688 407.828125 Z M 820.304688 407.828125 " fill-opacity="1" fill-rule="nonzero"/><path fill="#000000" d="M 1082.730469 285.714844 C 1081.761719 284.746094 1080.613281 284.363281 1079.25 284.363281 C 1077.902344 284.363281 1076.550781 284.746094 1075.585938 285.714844 C 1052.390625 308.90625 1019.539062 319.523438 987.269531 314.117188 C 984.757812 313.535156 983.011719 311.21875 983.410156 308.707031 C 984.957031 299.4375 984.175781 289.972656 978.765625 286.875 C 975.289062 284.945312 970.066406 284.746094 963.890625 295.179688 C 961.5625 298.660156 960.792969 302.917969 961.5625 306.960938 C 962.539062 311.023438 965.039062 314.699219 968.519531 316.828125 C 970.648438 318.558594 968.132812 321.457031 966.785156 322.816406 C 963.109375 327.261719 956.734375 328.027344 952.289062 324.550781 C 946.683594 322.039062 944.171875 315.863281 946.300781 310.253906 C 948.8125 300.007812 958.863281 291.121094 962.539062 291.121094 C 965.238281 291.121094 967.550781 288.808594 967.550781 286.097656 C 967.75 283.398438 965.4375 281.070312 962.726562 280.886719 L 962.539062 280.886719 C 952.871094 280.886719 939.925781 294.015625 936.445312 307.742188 C 933.152344 317.792969 937.796875 328.808594 947.464844 333.433594 C 951.125 335.5625 955.1875 336.53125 959.445312 336.726562 C 967.75 336.34375 975.089844 331.320312 978.570312 323.585938 C 978.964844 323.003906 979.929688 322.617188 980.699219 322.816406 C 1005.242188 330.15625 1050.078125 325.515625 1082.730469 293.050781 C 1083.695312 292.085938 1084.277344 290.738281 1084.277344 289.390625 C 1084.277344 288.027344 1083.695312 286.679688 1082.730469 285.714844 Z M 973.359375 307.742188 C 971.230469 305.8125 970.84375 302.71875 972.578125 300.402344 C 973.160156 299.4375 973.542969 298.855469 973.941406 298.273438 C 974.125 301.371094 973.941406 304.648438 973.359375 307.742188 Z M 973.359375 307.742188 " fill-opacity="1" fill-rule="nonzero"/></svg>