<svg xmlns="http://www.w3.org/2000/svg" xmlns:xlink="http://www.w3.org/1999/xlink" width="1080" zoomAndPan="magnify" viewBox="0 0 810 809.999993" height="1080" preserveAspectRatio="xMidYMid meet" version="1.0"><path fill="#25475c" d="M 405.746094 527.511719 C 283.609375 527.511719 184.621094 428.519531 184.621094 306.398438 C 184.621094 184.28125 283.609375 85.304688 405.746094 85.304688 C 527.878906 85.304688 626.871094 184.28125 626.871094 306.398438 C 626.871094 428.519531 527.878906 527.511719 405.746094 527.511719 Z M 709.289062 273.203125 C 692.476562 130.574219 571.390625 13.683594 427.710938 6.742188 C 296.480469 0.410156 197.601562 56.5625 134.460938 171.890625 C 104.484375 226.625 93.953125 286.292969 104.042969 348.414062 C 111.941406 397.128906 132.160156 441.535156 155.417969 484.597656 C 191.894531 552.054688 236.289062 614.226562 285.210938 673.03125 C 323.640625 719.226562 364.058594 763.78125 404.289062 809.863281 C 408.78125 805.589844 410.9375 803.65625 412.960938 801.59375 C 469.363281 744.28125 522.152344 683.820312 570.285156 619.382812 C 615.121094 559.34375 656 496.878906 684.890625 427.304688 C 705.402344 377.90625 715.660156 327.203125 709.289062 273.203125 " fill-opacity="1" fill-rule="nonzero"/><path fill="#4377c3" d="M 370.945312 353.492188 L 370.960938 353.492188 C 370.960938 353.511719 370.960938 353.53125 370.945312 353.550781 Z M 442.957031 209.355469 C 432.1875 200.351562 421.414062 191.332031 410.640625 182.328125 C 406.738281 179.050781 404.859375 179.050781 400.882812 182.253906 C 400.257812 182.769531 399.613281 183.265625 398.988281 183.78125 C 359.710938 216.589844 320.472656 249.4375 281.140625 282.171875 C 278.269531 284.5625 277.109375 287.066406 277.128906 290.785156 C 277.21875 336.757812 277.183594 382.730469 277.183594 428.703125 C 277.183594 434.796875 278.675781 436.289062 284.824219 436.289062 C 314.433594 436.289062 344.042969 436.289062 373.648438 436.289062 C 379.671875 436.289062 381.144531 434.742188 381.144531 428.574219 C 381.144531 407.328125 381.144531 386.082031 381.144531 364.835938 C 381.144531 363.492188 381.144531 362.128906 381.144531 360.601562 C 397.585938 360.601562 413.550781 360.601562 430.125 360.601562 C 430.125 362.21875 430.125 363.472656 430.125 364.722656 C 430.125 385.839844 430.125 406.976562 430.125 428.113281 C 430.125 434.832031 431.597656 436.289062 438.316406 436.289062 C 467.464844 436.289062 496.59375 436.289062 525.742188 436.289062 C 532.960938 436.289062 534.304688 434.960938 534.304688 427.78125 C 534.304688 382.050781 534.289062 336.296875 534.359375 290.566406 C 534.359375 287.121094 533.292969 284.730469 530.625 282.5 C 501.347656 258.179688 472.160156 233.75 442.957031 209.355469 " fill-opacity="1" fill-rule="nonzero"/><path fill="#4377c3" d="M 315.132812 213.683594 C 309.222656 218.707031 303.441406 223.898438 297.085938 229.496094 C 297.085938 212.652344 297.085938 196.449219 297.085938 179.859375 C 303.957031 179.859375 310.621094 179.859375 317.804688 179.859375 C 317.804688 182.789062 317.804688 185.53125 317.804688 188.273438 C 317.804688 194.773438 317.675781 201.292969 317.875 207.789062 C 317.949219 210.386719 317.046875 212.042969 315.132812 213.683594 Z M 570.175781 278.949219 C 526.460938 240.820312 482.785156 202.636719 438.945312 164.636719 C 429.3125 156.277344 419.058594 148.65625 409.132812 140.628906 C 406.792969 138.75 404.621094 138.695312 402.226562 140.515625 C 399.648438 142.488281 396.851562 144.179688 394.363281 146.261719 C 377.257812 160.53125 360.191406 174.835938 343.140625 189.175781 C 338.390625 193.171875 333.75 197.277344 328.261719 202.007812 C 328.261719 190.410156 328.261719 179.84375 328.261719 169.164062 C 314.101562 169.164062 300.421875 169.164062 286.078125 169.164062 C 286.078125 170.859375 286.078125 172.21875 286.078125 173.601562 C 286.148438 194.128906 286.167969 214.675781 286.351562 235.222656 C 286.371094 238.058594 285.449219 239.917969 283.351562 241.757812 C 269.300781 254.058594 255.363281 266.503906 241.386719 278.894531 C 238.332031 281.597656 237.796875 284.5625 239.859375 287.050781 C 242.070312 289.71875 245.070312 289.683594 248.382812 286.828125 C 255.070312 281.082031 261.714844 275.304688 268.398438 269.539062 C 312.519531 231.523438 356.65625 193.484375 400.773438 155.464844 C 402.410156 154.066406 404.125 152.742188 405.800781 151.378906 C 406.628906 152.042969 407.179688 152.449219 407.714844 152.90625 C 459.472656 197.515625 511.253906 242.144531 563.011719 286.753906 C 566.328125 289.625 569.253906 289.738281 571.539062 287.121094 C 573.671875 284.691406 573.214844 281.597656 570.175781 278.949219 " fill-opacity="1" fill-rule="nonzero"/></svg>